# xmcd
#
# Track frame offsets: 
#        150
#        10348
#        22519
#        34111
#        44221
#        56995
#        67141
#        78977
#        90137
#        109533
#        120917
#        135784
#        149098
#        160770
#        172440
#        191821
#        202880
#        209392
#        220226
#        237475
#
# Disc length: 3316 seconds
#
# Revision: 0
# Processed by: cddbd v1.5.2PL0 Copyright (c) Steve Scherf et al.
# Submitted via: ExactAudioCopy v1.3
#
DISCID=1c0cf214
DTITLE=Eddie Cash - Vol III - CD 2
DYEAR=2002
DGENRE=
TTITLE0=Stand by Me
TTITLE1=For Your Love
TTITLE2=Beyond the Sea
TTITLE3=Sea of Love
TTITLE4=Blue Hawaii
TTITLE5=The Way You Look Tonight
TTITLE6=Blue Velvet
TTITLE7=Runaway
TTITLE8=Rainy Night in Georgia
TTITLE9=Georgia
TTITLE10=Stardust
TTITLE11=You Got It
TTITLE12=Let it be Me
TTITLE13=Can See Clearly Now
TTITLE14=When I Fall in Love
TTITLE15=Blue on Blue
TTITLE16=Edelweiss
TTITLE17=Amazing Grace
TTITLE18=Morning has Broken
TTITLE19=How Great Thou Art
EXTD=
EXTT0=
EXTT1=
EXTT2=
EXTT3=
EXTT4=
EXTT5=
EXTT6=
EXTT7=
EXTT8=
EXTT9=
EXTT10=
EXTT11=
EXTT12=
EXTT13=
EXTT14=
EXTT15=
EXTT16=
EXTT17=
EXTT18=
EXTT19=
PLAYORDER=
